<svg width="586" height="109" viewBox="0 0 586 109" fill="none" xmlns="http://www.w3.org/2000/svg">
<path d="M133.557 73.1904C133.546 73.496 133.465 73.795 133.317 74.0641C133.17 74.3332 132.962 74.5649 132.709 74.7411C132.456 74.9174 132.164 75.0333 131.858 75.0798C131.552 75.1263 131.239 75.1021 130.943 75.0092C129.368 74.5236 129.431 72.7313 130.362 71.6542C130.507 71.4749 130.689 71.3274 130.896 71.221C131.102 71.1146 131.329 71.0517 131.561 71.0362C131.839 71.0377 132.113 71.0958 132.367 71.207C132.621 71.3183 132.849 71.4802 133.037 71.6825C133.224 71.8849 133.367 72.1233 133.457 72.3828C133.546 72.6423 133.58 72.9173 133.557 73.1904ZM130.576 59.2762C129.511 61.2627 128.393 63.9908 127.202 66.869C123.623 75.4594 120.043 84.3324 114.378 84.3324H114.279C113.524 84.2964 112.786 84.0957 112.119 83.7445C111.452 83.3934 110.872 82.9006 110.422 82.3017C107.916 79.3264 106.484 73.314 106.189 65.3857C101.714 73.7819 96.9974 81.1628 92.3614 81.1628C91.8093 81.1629 91.2623 81.058 90.7505 80.8538C87.645 79.6531 86.2757 75.7331 86.7679 69.2086C86.9166 67.2267 87.1795 65.2547 87.5555 63.3022C85.9266 65.6771 82.7316 69.9149 79.5903 71.7425C79.0544 72.0816 78.4365 72.2736 77.8003 72.2987C77.2646 72.302 76.7415 72.1383 76.3057 71.8308C75.5808 71.3275 74.7485 70.3122 74.9006 67.3722C72.4305 70.5418 69.4145 73.676 66.3806 75.1151C65.2512 75.6728 64.0097 75.9744 62.747 75.998C60.0621 75.998 57.7441 74.4 56.2316 71.354C55.2839 69.3392 54.7835 67.1478 54.7639 64.9267C50.1906 71.5394 45.0804 78.5848 40.0149 78.5848H39.5942C36.6408 78.3553 33.9022 75.2564 30.4298 71.3364C27.4495 67.9726 24.0845 64.1585 20.1735 61.713C19.7439 70.8155 19.5022 79.9797 19.5738 88.1993C19.5738 93.1082 19.7618 97.4255 20.0213 101.028C20.0484 101.466 19.8991 101.897 19.6059 102.228C19.3127 102.558 18.8992 102.762 18.4551 102.793H18.3388C17.9126 102.792 17.5025 102.633 17.1906 102.346C16.8786 102.06 16.6878 101.668 16.6562 101.248C16.3877 97.5755 16.2356 93.1876 16.1909 88.2082C16.1193 79.503 16.3877 69.7207 16.88 60.0708C14.1822 59.0165 11.209 58.8614 8.4136 59.6294C8.03132 59.7363 7.62302 59.7063 7.26101 59.5447C6.899 59.3831 6.60664 59.1004 6.43572 58.7465C6.26791 58.3896 6.23335 57.9856 6.33816 57.606C6.44296 57.2263 6.68039 56.8954 7.0085 56.6717C9.6039 54.906 12.2977 53.1402 14.9021 51.4539L17.4796 49.7676C18.3746 36.5774 19.5738 24.4908 20.7731 16.8362C20.8599 16.415 21.1083 16.043 21.4663 15.7979C21.8243 15.5529 22.2645 15.4536 22.6949 15.5207C23.1253 15.5879 23.5129 15.8163 23.7768 16.1585C24.0406 16.5006 24.1605 16.93 24.1113 17.3571C23.0015 24.4202 21.8739 35.359 21.0237 47.428C29.9733 41.4509 38.6814 34.9529 45.1878 26.4066C46.9777 24.1023 52.5265 16.1123 51.1572 10.2323C50.8997 9.18351 50.402 8.20687 49.7023 7.37736C49.0026 6.54786 48.1195 5.88754 47.1209 5.4471C45.2723 4.57401 43.2456 4.13006 41.1962 4.14927C24.9705 3.70783 8.24355 19.5467 3.28544 34.0259C3.21481 34.2332 3.10336 34.4247 2.9575 34.5893C2.81163 34.754 2.63422 34.8886 2.43545 34.9854C2.23669 35.0822 2.02049 35.1393 1.79929 35.1534C1.57808 35.1675 1.35623 35.1384 1.14647 35.0677C0.936353 34.998 0.742262 34.8881 0.57535 34.7442C0.408438 34.6003 0.271996 34.4253 0.173862 34.2292C0.0757275 34.0331 0.0178368 33.8198 0.00351536 33.6016C-0.0108061 33.3834 0.0187238 33.1645 0.0904091 32.9576C2.77531 25.0647 8.55679 17.0216 15.9224 10.8856C23.9771 4.15809 32.9894 0.564782 41.2499 0.785502C43.8117 0.779453 46.3407 1.35333 48.6423 2.46297C50.0784 3.12353 51.344 4.09675 52.3439 5.30942C53.3437 6.52209 54.0518 7.94263 54.4149 9.46419C56.0616 16.5272 50.3786 25.047 47.8548 28.3755C40.5339 38.043 30.6625 45.0619 20.7373 51.604C20.603 53.6964 20.4867 55.8153 20.3703 57.9431C25.4538 60.5917 29.5795 65.2798 32.9715 69.1292C35.5848 72.078 38.2786 75.1239 39.8627 75.2475C43.3889 75.5124 49.1972 67.0721 52.6786 62.0043C53.7973 60.3798 54.8534 58.8524 55.7752 57.6606C57.2788 52.4957 60.3753 47.5957 64.5011 44.8588C66.6043 43.4639 68.8328 43.2167 70.4348 44.2055C71.1214 44.6546 71.6578 45.2942 71.9764 46.0437C72.2949 46.7932 72.3813 47.6189 72.2247 48.4168C71.6877 52.3986 65.8346 58.8348 58.5943 60.318C57.8426 63.8495 57.9679 67.2928 59.2477 69.862C60.5275 72.4311 62.4069 73.2522 64.8949 72.078C69.7725 69.7737 75.2497 61.4128 77.1381 57.7224C77.1835 57.6426 77.2344 57.5659 77.2902 57.4928C79.3218 52.1072 82.66 46.2361 86.6963 45.2561C87.6182 45.0658 88.5743 45.1128 89.4725 45.3927C90.3706 45.6726 91.1806 46.1759 91.8244 46.8541C92.6197 47.7062 93.121 48.7849 93.2564 49.9354C93.6174 50.116 93.9002 50.419 94.0531 50.7887C94.206 51.1584 94.2186 51.5702 94.0887 51.9483C89.1306 66.454 89.1485 76.6248 92.0034 77.7284C92.8984 78.0727 94.921 76.9338 97.9192 72.696C100.439 68.9218 102.714 64.994 104.73 60.9361C105.338 59.7618 105.84 58.7995 106.233 58.1108C106.484 52.4418 107.082 46.7928 108.023 41.1949C108.507 38.3167 112.919 12.9427 120.043 8.21051C120.545 7.8467 121.12 7.59178 121.729 7.46245C122.338 7.33312 122.968 7.33231 123.578 7.46007C124.344 7.65761 125.047 8.04522 125.618 8.58607C126.19 9.12692 126.612 9.80303 126.844 10.5501C129.825 17.9222 124.795 37.7958 109.616 60.115C109.588 60.162 109.555 60.2064 109.518 60.2474C109.303 70.7095 110.86 77.5872 113.017 80.1387C113.165 80.3617 113.358 80.5516 113.585 80.6961C113.811 80.8406 114.066 80.9364 114.333 80.9774C117.68 80.9774 121.493 71.716 124.025 65.5888C125.251 62.6223 126.397 59.8236 127.534 57.7047C127.638 57.5076 127.781 57.3328 127.954 57.1902C128.127 57.0475 128.327 56.94 128.542 56.8736C128.758 56.8072 128.984 56.7832 129.209 56.8031C129.433 56.823 129.652 56.8864 129.852 56.9896C130.051 57.0928 130.229 57.2338 130.373 57.4045C130.518 57.5753 130.627 57.7725 130.694 57.9848C130.761 58.1971 130.786 58.4205 130.765 58.6421C130.745 58.8636 130.681 59.0791 130.576 59.2762ZM109.876 53.617C122.746 33.1254 125.833 17.057 123.721 11.8127C123.569 11.4507 123.265 10.8327 122.826 10.7355H122.665C122.392 10.7569 122.131 10.855 121.913 11.0181C117.949 13.6667 113.509 28.8434 111.353 41.7776C110.672 46.0242 110.189 49.9795 109.894 53.617H109.876ZM59.7578 56.5746C64.9665 54.7382 68.6359 50.006 68.9044 48.0107C68.9044 47.8341 68.976 47.2426 68.6896 47.066C68.5488 46.9944 68.3913 46.9609 68.2331 46.9689C67.5825 47.0204 66.9609 47.2565 66.4432 47.6487C63.5077 49.5557 61.1719 52.9019 59.731 56.5746H59.7578ZM17.238 53.926L16.7905 54.2173L14.1414 55.9301C15.1313 56.0551 16.1078 56.2679 17.059 56.5658C17.1037 55.6829 17.1574 54.8 17.2111 53.926H17.238ZM89.3812 49.1585C89.183 48.9509 88.9447 48.7847 88.6803 48.6694C88.4159 48.5542 88.1308 48.4923 87.8418 48.4875C87.7349 48.4735 87.6266 48.4735 87.5197 48.4875C86.1325 48.823 83.7876 51.0655 81.407 56.3716C79.0264 61.6777 78.0957 66.7719 78.2747 68.6171C82.4899 65.8537 88.2893 56.6364 89.6855 52.2485C89.9629 51.3215 90.1598 50.006 89.3543 49.1585H89.3812ZM300.262 81.207C300.528 81.4262 300.719 81.7206 300.81 82.0505C300.9 82.3803 300.886 82.7297 300.769 83.0514C300.652 83.373 300.437 83.6514 300.155 83.8489C299.872 84.0465 299.535 84.1536 299.188 84.1558C298.794 84.1563 298.411 84.0222 298.105 83.7761C292.44 79.141 293.559 64.6 294.472 52.8754C294.56 52.1484 294.53 51.4121 294.382 50.6947C293.448 51.2556 292.636 51.9938 291.993 52.8665C287.965 57.8195 285.782 67.4958 284.475 73.2699C284.153 74.6737 283.884 75.9185 283.643 76.7572C283.401 77.596 282.953 79.247 281.468 79.2823C281.021 79.2884 280.587 79.1398 280.24 78.8623C279.893 78.5847 279.656 78.196 279.57 77.7637C278.282 74.091 278.47 68.5376 278.676 62.6577C278.926 54.906 279.221 46.1213 275.704 43.3667C274.711 42.5898 273.27 43.6316 270.227 46.192C267.184 48.7523 263.398 51.9483 258.369 52.7253C260.382 55.109 262.181 58.9054 261.949 64.803C261.761 70.2769 258.852 74.7178 255.46 74.7178C254.63 74.6794 253.825 74.4236 253.128 73.9767C252.432 73.5298 251.868 72.908 251.495 72.1751C249.312 68.6436 248.963 61.0773 253.097 52.6635C252.996 52.6023 252.891 52.5464 252.784 52.4957L252.704 52.4427L252.569 52.3545L252.435 52.2485L252.328 52.1514C252.284 52.1053 252.245 52.055 252.211 52.0013C252.18 51.9699 252.153 51.9342 252.131 51.8954C252.098 51.8443 252.068 51.7912 252.041 51.7365L251.988 51.6129C251.961 51.556 251.94 51.4969 251.925 51.4363V51.3038V51.1184V50.986C251.921 50.9184 251.921 50.8506 251.925 50.783C251.921 50.7596 251.921 50.7357 251.925 50.7123C251.925 50.7123 251.925 50.7123 251.925 50.6505C251.942 50.5874 251.963 50.5255 251.988 50.4651C252.003 50.4171 252.021 50.37 252.041 50.3238V50.2532L252.095 50.1738L252.185 50.0413L252.292 49.9177L252.399 49.8206C252.443 49.7748 252.491 49.7334 252.542 49.697L252.65 49.6264L252.811 49.5381C252.851 49.5114 252.897 49.4933 252.945 49.4851L253.115 49.4233H253.258H253.437H253.849C259.908 50.5269 264.213 46.9071 267.999 43.7111C271.194 41.0624 274.496 38.2461 277.763 40.8064C282.622 44.6028 282.309 53.8642 282.014 62.8166C281.942 65.0591 281.862 67.3193 281.879 69.4294C283.311 63.4346 285.531 55.524 289.335 50.8447C290.963 48.8318 293.398 46.6246 295.698 47.5163C298.177 48.4875 297.899 52.0278 297.81 53.1932C297.04 62.9314 295.913 77.6754 300.235 81.207H300.262ZM255.818 54.9237C253.769 59.5588 252.023 66.5865 254.404 70.4976C254.753 71.0715 255.165 71.3805 255.478 71.3805C256.471 71.3805 258.449 68.7319 258.592 64.6883C258.637 62.6047 258.431 58.1373 255.791 54.9237H255.818ZM435.259 11.4683C435.202 11.2476 435.099 11.0408 434.958 10.8607C434.816 10.6805 434.639 10.5308 434.437 10.4209C434.235 10.3109 434.012 10.2429 433.782 10.2212C433.552 10.1994 433.32 10.2243 433.1 10.2944C432.88 10.3644 432.677 10.4781 432.504 10.6284C432.33 10.7788 432.19 10.9626 432.091 11.1685C431.992 11.3745 431.937 11.5982 431.93 11.8259C431.922 12.0536 431.961 12.2804 432.046 12.4925C434.91 21.2683 436.923 36.7717 437.183 51.9925C437.46 68.158 435.742 80.3594 432.601 84.6149C431.598 85.9745 430.811 85.9745 430.578 85.9745C429.325 85.9745 425.871 84.3588 421.047 69.4558C417.914 59.7442 415.444 48.3815 413.815 40.8417C413.368 38.767 412.983 36.9747 412.67 35.6769C412.589 35.325 412.394 35.0087 412.115 34.7759C411.836 34.543 411.487 34.4062 411.122 34.3863C410.757 34.3663 410.395 34.4643 410.091 34.6653C409.788 34.8663 409.559 35.1594 409.439 35.5003C408.687 37.5839 407.703 40.7005 406.566 44.3291C403.881 52.999 400.105 64.8737 395.827 74.603C389.562 88.9233 385.275 91.0599 383.297 91.0599C382.527 91.0599 381.382 90.8303 380.326 88.8174C377.122 82.7432 377.551 65.8625 381.498 42.4751C384.774 23.0517 389.275 6.27701 390.582 4.10512C390.898 3.84641 391.108 3.4831 391.172 3.08299C391.237 2.68288 391.152 2.2733 390.932 1.93066C390.713 1.58802 390.375 1.33573 389.982 1.22087C389.588 1.106 389.165 1.1364 388.792 1.3064C387.96 1.65955 387.11 2.0127 384.317 12.669C382.527 19.4142 380.737 27.678 379.189 35.9859C376.764 49.0702 373.077 72.8902 375.663 85.4271C376.889 91.3512 379.44 94.3618 383.27 94.3618C393.473 94.3618 401.957 70.118 409.77 45.2826L410.665 42.3956C416.805 70.5771 422.55 89.2765 430.542 89.2765C431.795 89.2765 433.63 88.7997 435.295 86.5572C440.432 79.6001 440.664 60.009 440.53 51.9042C440.235 36.4185 438.185 20.5355 435.232 11.4683H435.259ZM582.534 60.2915C579.653 65.4211 575.294 73.1639 570.005 73.1639C567.231 73.1639 565.047 71.2392 564.143 68.0079C563.543 65.5222 563.282 62.9689 563.364 60.4152C563.364 58.5258 563.436 56.6276 563.507 54.7912L563.588 52.7165C563.601 52.3498 563.573 51.9828 563.507 51.6217C558.612 57.069 553.949 67.7607 552.15 77.6666C552.083 78.0385 551.89 78.3767 551.602 78.6255C551.314 78.8743 550.949 79.0188 550.566 79.0351H550.495C550.124 79.0376 549.762 78.9184 549.467 78.6962C549.173 78.4741 548.961 78.1616 548.866 77.8079C548.481 76.4041 548.186 71.0009 548.221 64.5647C545.536 68.5376 541.599 73.2434 537.661 75.1063C536.532 75.6651 535.29 75.9668 534.027 75.9891C531.342 75.9891 529.024 74.3911 527.521 71.3452C526.825 69.892 526.38 68.3343 526.205 66.7366C521.73 75.1504 518.151 80.8626 513.962 81.516C513.267 81.6248 512.557 81.5815 511.881 81.3893C511.205 81.197 510.58 80.8605 510.051 80.4035C508.163 78.779 507.277 75.7066 507.366 71.0009C507.432 68.6366 507.638 66.2782 507.984 63.9378C508.177 62.7159 508.293 61.4835 508.333 60.2474C506.543 60.9184 504.243 65.1121 502.703 67.9726C500.457 72.1575 498.837 75.1857 496.224 74.7266C495.898 74.6681 495.589 74.5447 495.313 74.3641C495.038 74.1834 494.803 73.9493 494.622 73.676C493.342 71.7601 494.255 67.4252 496.125 59.2851C497.477 53.4227 498.998 46.7835 498.667 43.2343C498.596 42.4309 498.246 41.5745 497.656 41.5745C491.686 41.8041 485.771 57.2103 481.86 67.3987C478.208 76.8985 476.49 81.1187 474.002 81.7632C473.841 81.8016 473.676 81.8224 473.51 81.825C473.229 81.8229 472.952 81.7629 472.696 81.6488C472.44 81.5348 472.211 81.3693 472.024 81.1628C469.983 78.9998 469.742 65.2092 471.004 54.9237C467.791 56.0096 463.79 55.8065 459.96 54.7471C461.399 57.9433 462.025 61.4375 461.786 64.9267C461.571 70.9567 458.394 75.8567 454.706 75.8567C453.809 75.815 452.939 75.5388 452.186 75.0563C451.433 74.5738 450.823 73.9024 450.42 73.1109C447.994 69.1292 447.618 60.7506 452.281 51.2862C452.03 51.1184 451.78 50.9419 451.547 50.7653C451.19 50.5223 450.942 50.1525 450.854 49.7332C450.767 49.3139 450.847 48.8775 451.078 48.5152C451.309 48.1528 451.673 47.8925 452.094 47.7886C452.515 47.6847 452.96 47.7453 453.337 47.9577C454.152 48.3684 454.923 48.8594 455.637 49.4233C460.783 52.3015 467.907 53.4934 471.55 50.9419C471.812 49.4468 472.179 47.9717 472.65 46.5275C472.815 46.135 473.124 45.819 473.517 45.6439C473.909 45.4688 474.354 45.4478 474.761 45.5851C475.168 45.7224 475.507 46.0077 475.709 46.3829C475.91 46.7582 475.959 47.195 475.845 47.6046C473.277 55.0473 473.268 71.2922 474.056 77.1016C475.763 73.5637 477.287 69.9421 478.62 66.251C483.596 53.2815 489.243 38.5816 497.414 38.2725C499.822 38.1843 501.674 40.1089 501.943 42.9518C502.319 47.0395 500.806 53.6523 499.329 60.0443C498.462 63.4712 497.789 66.9435 497.316 70.4447C498.059 69.3675 498.954 67.6901 499.634 66.4364C502.077 61.8896 504.851 56.7247 508.87 56.8483C509.242 56.8479 509.609 56.9265 509.947 57.0788C510.286 57.2312 510.587 57.4537 510.83 57.7312C511.948 59.029 511.671 61.1479 511.241 64.3793C510.912 66.5907 510.718 68.8195 510.66 71.0538C510.588 75.9715 511.725 77.4812 512.208 77.8962C512.367 78.0382 512.557 78.1417 512.764 78.1984C512.971 78.2551 513.188 78.2635 513.398 78.2228C516.683 77.7372 521.453 68.573 526.017 59.6824L526.957 57.9166C528.434 52.6635 531.557 47.6664 535.746 44.8853C537.858 43.4903 540.077 43.2432 541.688 44.232C542.374 44.6819 542.91 45.3216 543.228 46.0709C543.547 46.8201 543.634 47.6455 543.478 48.4433C542.941 52.4251 537.097 58.8613 529.848 60.3445C529.096 63.876 529.221 67.3193 530.501 69.8884C531.781 72.4576 533.66 73.2787 536.148 72.1045C540.963 69.8266 546.351 61.6688 548.311 57.9078C548.44 53.6792 548.81 49.4612 549.421 45.2738C549.49 44.8382 549.731 44.4475 550.092 44.1876C550.453 43.9277 550.903 43.8198 551.345 43.8877C551.786 43.9556 552.182 44.1937 552.446 44.5497C552.709 44.9056 552.819 45.3503 552.75 45.7859C551.843 52.6966 551.442 59.6629 551.551 66.6306C553.976 59.6647 557.377 53.3256 560.984 49.3439C562.604 47.5781 564.125 47.8871 564.698 48.1166C566.166 48.6993 566.989 50.4563 566.908 52.8312C566.908 53.5199 566.864 54.2174 566.837 54.9237C566.756 56.6894 566.685 58.5876 566.693 60.4063C566.614 62.6644 566.833 64.9231 567.347 67.125C567.571 67.9373 568.242 69.8355 569.951 69.8355C573.272 69.8355 577.505 62.2957 579.536 58.6759L580.1 57.687C580.202 57.4837 580.344 57.3029 580.519 57.1557C580.694 57.0086 580.897 56.8981 581.117 56.831C581.337 56.764 581.568 56.7418 581.796 56.7658C582.025 56.7898 582.246 56.8595 582.446 56.9706C582.647 57.0817 582.822 57.2319 582.961 57.4121C583.101 57.5923 583.202 57.7986 583.258 58.0185C583.314 58.2384 583.324 58.4673 583.287 58.6911C583.25 58.9149 583.168 59.129 583.045 59.3204C582.919 59.6294 582.731 59.9472 582.534 60.2915ZM531.02 56.5746C536.229 54.7382 539.898 50.006 540.167 48.0107C540.167 47.8341 540.247 47.2426 539.952 47.066C539.811 46.9944 539.654 46.9609 539.495 46.9689C538.845 47.0219 538.224 47.2578 537.706 47.6487C534.806 49.5557 532.47 52.9019 531.029 56.5746H531.02ZM455.002 53.3874C450.957 61.9249 451.699 68.7495 453.301 71.3805C453.516 71.7248 454.062 72.5194 454.697 72.5194C455.906 72.5194 458.224 69.5882 458.394 64.803C458.492 62.331 458.242 57.0514 455.011 53.3874H455.002ZM584.038 71.045C583.806 71.0611 583.579 71.1242 583.373 71.2306C583.167 71.3369 582.985 71.4841 582.839 71.663C581.944 72.7402 581.845 74.5324 583.42 75.018C583.699 75.0915 583.989 75.1063 584.274 75.0614C584.558 75.0166 584.83 74.9131 585.071 74.7577C585.312 74.6024 585.518 74.3986 585.673 74.1597C585.829 73.9209 585.933 73.6523 585.976 73.3714C586.02 73.0905 586.003 72.8037 585.927 72.5297C585.851 72.2557 585.717 72.0007 585.534 71.7812C585.351 71.5617 585.123 71.3827 584.865 71.2558C584.608 71.129 584.326 71.0571 584.038 71.045ZM330.557 70.1092C330.684 73.2118 330.624 76.3191 330.378 79.4147C329.527 89.8239 326.449 99.5973 322.323 104.903C319.79 108.17 317.463 109 315.754 109C315.475 109 315.197 108.976 314.922 108.929C312.514 108.541 310.751 106.643 310.089 103.712C308.558 97.0458 312.425 83.1493 326.977 68.7672C326.615 62.6572 325.457 56.6187 323.531 50.8006H323.397C321.401 60.7595 316.148 71.6454 310.151 74.3558C309.461 74.6804 308.706 74.8521 307.941 74.8591C307.143 74.8672 306.361 74.6397 305.695 74.2057C304.2 73.2346 303.377 71.3275 303.439 68.9879C303.627 61.969 308.254 53.3521 313.991 49.3792C315.889 47.9882 318.148 47.1556 320.506 46.9777C320.656 45.8235 320.745 44.6625 320.775 43.4992C320.775 43.4992 320.775 43.4286 320.775 43.3844C320.771 43.3256 320.771 43.2666 320.775 43.2078C320.785 43.148 320.8 43.089 320.819 43.0313C320.833 42.9857 320.851 42.9414 320.873 42.8988C320.896 42.8384 320.923 42.7794 320.954 42.7223L321.025 42.6075L321.133 42.4662L321.24 42.3426L321.348 42.2367L321.509 42.1219L321.607 42.0601L321.759 41.9718H321.813H321.884C321.971 41.9361 322.061 41.9095 322.153 41.8924H322.207H322.475H322.627H322.815L322.976 41.9365L323.137 41.9895L323.281 42.0601L323.433 42.1396L323.558 42.2455C323.607 42.2753 323.652 42.3109 323.692 42.3514C323.733 42.3885 323.769 42.43 323.8 42.4751L323.907 42.5986L324.006 42.7664L324.059 42.8547C327.385 50.0842 329.468 57.8087 330.226 65.7124C333.688 62.626 337.354 59.7681 341.198 57.1573C341.386 57.0298 341.598 56.94 341.821 56.8932C342.044 56.8464 342.274 56.8434 342.499 56.8843C342.723 56.9253 342.937 57.0095 343.129 57.1321C343.32 57.2547 343.485 57.4133 343.614 57.5988C343.744 57.7843 343.835 57.9931 343.882 58.2133C343.93 58.4335 343.933 58.6607 343.891 58.8821C343.849 59.1034 343.764 59.3146 343.64 59.5034C343.516 59.6922 343.355 59.855 343.167 59.9825C338.698 63.0157 334.484 66.3992 330.566 70.1003L330.557 70.1092ZM319.907 50.5093C318.483 50.7776 317.14 51.3601 315.978 52.2132C311.136 55.5682 307.028 63.1433 306.903 69.1027C306.842 69.5083 306.873 69.9222 306.993 70.3145C307.114 70.7069 307.322 71.0679 307.601 71.3717C307.887 71.5571 308.353 71.3717 308.702 71.2657C313.087 69.2793 317.973 59.7177 319.916 50.5004L319.907 50.5093ZM327.138 73.5612C315.074 86.4954 312.407 98.1936 313.49 102.952C313.74 104.029 314.286 105.354 315.503 105.548C316.721 105.742 318.099 104.736 319.584 102.82C323.791 97.3813 327.129 86.3276 327.147 73.5524L327.138 73.5612ZM250.117 47.4457C249.9 47.4894 249.676 47.4902 249.458 47.4481C249.24 47.406 249.033 47.3218 248.848 47.2003C248.663 47.0788 248.505 46.9225 248.382 46.7404C248.258 46.5582 248.173 46.3539 248.13 46.139C248.054 45.5935 247.769 45.0975 247.334 44.7529C247.241 44.6961 247.137 44.6597 247.029 44.646C246.921 44.6323 246.811 44.6416 246.707 44.6734C244.076 45.3885 237.453 59.0732 235.296 75.9273C235.244 76.3307 235.044 76.7013 234.734 76.9696C234.425 77.2378 234.026 77.3852 233.614 77.3841C233.196 77.3766 232.796 77.2161 232.492 76.9338C232.187 76.6515 232 76.2675 231.967 75.8567C231.752 73.2787 231.681 70.0209 231.735 66.5335C225.935 78.6996 221.317 85.074 217.361 86.4159C216.844 86.5951 216.299 86.6876 215.75 86.6896C215.025 86.6899 214.311 86.5108 213.674 86.1687C212.287 85.4183 208.081 83.1581 210.506 60.7242C210.709 58.8583 210.95 56.9189 211.231 54.906C204.917 57.866 198.994 61.575 193.591 65.9508C198.764 73.676 200.626 86.4601 194.235 96.5426C190.817 101.928 185.51 105.972 180.695 106.828C180.066 106.943 179.428 107.002 178.788 107.005C176.814 107.033 174.887 106.412 173.311 105.239C170.769 103.323 169.669 99.7916 170.206 95.2889C171.002 88.5613 175.235 80.3417 181.84 72.7313C184.061 70.1748 186.453 67.7679 189 65.527C185.017 61.1126 179.155 57.9519 173.848 55.1355C168.12 52.0896 163.18 49.4586 161.202 45.6534C155.099 33.9023 174.143 12.6337 174.34 12.4307C177.57 8.92297 181.204 5.79991 185.169 3.12513C190.378 -0.159184 194.576 -0.856659 197.627 1.04153C202.102 3.83143 201.494 11.3712 200.187 17.2159C200.064 17.62 199.791 17.9632 199.422 18.1765C199.053 18.3899 198.616 18.4574 198.199 18.3657C197.781 18.274 197.415 18.0297 197.173 17.682C196.93 17.3344 196.831 16.9092 196.893 16.4919C198.343 10.0116 197.932 5.17341 195.828 3.85792C191.962 1.45649 183.451 7.54835 176.721 14.6555C171.915 19.7409 159.994 36.1536 164.12 44.0907C165.623 46.9777 170.385 49.4939 175.361 52.1602C180.909 55.1179 187.111 58.411 191.47 63.311C197.647 58.3212 204.47 54.1646 211.759 50.9507C212.529 46.0154 213.495 40.7711 214.632 35.359C212.842 35.9682 211.132 36.5862 209.647 37.1954C209.44 37.2833 209.218 37.3284 208.993 37.3279C208.604 37.3263 208.227 37.1921 207.926 36.948C207.625 36.7039 207.419 36.3649 207.342 35.9882C207.265 35.6115 207.323 35.2202 207.505 34.8804C207.686 34.5405 207.981 34.273 208.34 34.123C210.39 33.2401 212.815 32.4191 215.446 31.598C216.61 26.3007 217.916 21.0034 219.348 15.7062C219.407 15.4951 219.507 15.2976 219.643 15.1249C219.78 14.9521 219.949 14.8075 220.142 14.6992C220.334 14.591 220.547 14.5213 220.767 14.4941C220.987 14.4669 221.211 14.4828 221.424 14.5407C221.638 14.5987 221.839 14.6977 222.014 14.832C222.189 14.9663 222.335 15.1333 222.445 15.3235C222.555 15.5137 222.626 15.7234 222.653 15.9405C222.681 16.1577 222.665 16.378 222.606 16.589C221.362 21.233 220.198 25.9122 219.151 30.5297C225.461 28.7764 231.864 27.3675 238.33 26.3095C238.556 26.2567 238.79 26.2502 239.018 26.2904C239.246 26.3306 239.464 26.4167 239.657 26.5432C239.85 26.6697 240.015 26.834 240.141 27.0259C240.267 27.2178 240.351 27.4332 240.389 27.6588C240.427 27.8843 240.418 28.1152 240.362 28.337C240.306 28.5589 240.204 28.767 240.063 28.9485C239.922 29.1299 239.745 29.2808 239.542 29.3918C239.34 29.5029 239.116 29.5716 238.885 29.5938C231.934 30.7229 225.059 32.2738 218.301 34.2378C216.207 43.9495 214.632 53.2462 213.773 61.1038C211.651 80.7567 214.829 83.0698 215.204 83.2641C215.354 83.3386 215.52 83.3774 215.688 83.3774C215.856 83.3774 216.021 83.3386 216.171 83.2641C218.158 82.5931 222.767 78.5583 231.385 59.0202L231.922 57.8195L232.012 57.6694C232.258 53.8881 232.703 50.1219 233.345 46.3862C233.37 46.1581 233.442 45.9375 233.557 45.7382C233.672 45.5388 233.827 45.3649 234.013 45.2273C234.199 45.0898 234.412 44.9916 234.638 44.9388C234.864 44.8861 235.099 44.8798 235.328 44.9206C235.557 44.9614 235.775 45.0482 235.968 45.1757C236.161 45.3032 236.326 45.4687 236.451 45.6617C236.577 45.8547 236.661 46.0712 236.697 46.2977C236.734 46.5241 236.724 46.7556 236.666 46.9777C235.978 51.208 235.533 55.4732 235.332 59.753C238.178 50.2974 242.152 42.4397 245.821 41.4421C246.372 41.2889 246.95 41.2507 247.517 41.3297C248.084 41.4088 248.628 41.6034 249.115 41.9012C249.728 42.3007 250.252 42.8203 250.654 43.4278C251.056 44.0352 251.327 44.7177 251.451 45.4327C251.499 45.6502 251.503 45.8751 251.462 46.0941C251.422 46.3132 251.337 46.5221 251.214 46.7087C251.091 46.8952 250.931 47.0557 250.744 47.1807C250.558 47.3057 250.347 47.3928 250.126 47.4368L250.117 47.4457ZM190.969 68.1492C188.618 70.2381 186.409 72.4766 184.355 74.8502C178.287 81.8603 174.242 89.6385 173.526 95.6332C173.132 98.9175 173.777 101.372 175.316 102.555C175.984 103.047 176.753 103.39 177.568 103.562C178.384 103.735 179.227 103.731 180.041 103.553C183.836 102.873 188.472 99.2618 191.318 94.7768C196.876 86.0363 195.372 74.9915 190.978 68.1404L190.969 68.1492ZM344.84 71.045C344.608 71.0611 344.382 71.1242 344.175 71.2306C343.969 71.3369 343.787 71.4841 343.641 71.663C342.746 72.7402 342.648 74.5324 344.223 75.018C344.501 75.0915 344.792 75.1063 345.076 75.0614C345.361 75.0166 345.632 74.9131 345.874 74.7577C346.115 74.6024 346.32 74.3986 346.476 74.1597C346.632 73.9209 346.735 73.6523 346.779 73.3714C346.822 73.0905 346.806 72.8037 346.729 72.5297C346.653 72.2557 346.519 72.0007 346.336 71.7812C346.153 71.5617 345.926 71.3827 345.668 71.2558C345.41 71.129 345.128 71.0571 344.84 71.045Z" fill="#B6B7BA"/>
</svg>
